<?xml version="1.0" encoding="utf-8"?>
<!-- Generator: Adobe Illustrator 21.1.0, SVG Export Plug-In . SVG Version: 6.00 Build 0)  -->
<svg version="1.1" id="Capa_1" xmlns="http://www.w3.org/2000/svg" xmlns:xlink="http://www.w3.org/1999/xlink" x="0px" y="0px"
	 viewBox="0 0 1080 1080" style="enable-background:new 0 0 1080 1080;" xml:space="preserve">
<style type="text/css">
	.st0{clip-path:url(#SVGID_2_);}
	.st1{clip-path:url(#SVGID_4_);}
</style>
<path d="M1020,172.8H812v-112v-1.6l0,0l0,0c0-1.6,0-3.2-1.6-3.2l0,0l0,0c0-1.6-1.6-3.2-1.6-3.2l-1.6-1.6l0,0
	c-1.6-1.6-3.2-3.2-4.8-3.2c-1.6-3.2-3.2-3.2-6.4-3.2l0,0H284l0,0c-1.6,0-4.8,0-6.4,1.6c-1.6,1.6-3.2,1.6-4.8,3.2l-1.6,1.6
	c-1.6,1.6-1.6,1.6-1.6,3.2l0,0l0,0c0,1.6,0,3.2-1.6,3.2l0,0l0,0v1.6v112H60c-9.6,0-16,6.4-16,16v832c0,9.6,6.4,16,16,16h960
	c9.6,0,16-6.4,16-16V188.8C1036,179.2,1029.6,172.8,1020,172.8z M780,416L567.2,283.2L780,96V416z M752.8,76.8L540,264L327.2,76.8
	H752.8z M300,96l212.8,187.2L300,416V96z M76,204.8h192v240c0,6.4,3.2,11.2,8,14.4c4.8,3.2,11.2,3.2,16,0l232-144v689.6H76V204.8z
	 M1004,1004.8H556V313.6l232,144c3.2,1.6,4.8,3.2,8,3.2s4.8,0,8-1.6c4.8-3.2,8-8,8-14.4v-240h192V1004.8z"/>
<path d="M460,524c-9.6,0-16,6.4-16,16s6.4,16,16,16h160c9.6,0,16-6.4,16-16s-6.4-16-16-16H460z"/>
</svg>
