<?xml version="1.0" encoding="utf-8"?>
<!-- Generator: Adobe Illustrator 21.1.0, SVG Export Plug-In . SVG Version: 6.00 Build 0)  -->
<svg version="1.1" id="Capa_1" xmlns="http://www.w3.org/2000/svg" xmlns:xlink="http://www.w3.org/1999/xlink" x="0px" y="0px"
	 viewBox="0 0 1080 1080" style="enable-background:new 0 0 1080 1080;" xml:space="preserve">
<style type="text/css">
	.st0{clip-path:url(#SVGID_2_);}
	.st1{clip-path:url(#SVGID_4_);}
</style>
<path d="M460,524c-9.6,0-16,6.4-16,16s6.4,16,16,16h160c9.6,0,16-6.4,16-16s-6.4-16-16-16H460z"/>
<g>
	<defs>
		<rect id="SVGID_1_" x="28" y="28" width="1024" height="1024"/>
	</defs>
	<clipPath id="SVGID_2_">
		<use xlink:href="#SVGID_1_"  style="overflow:visible;"/>
	</clipPath>
	<path class="st0" d="M908,412c0,62.4-49.6,112-112,112s-112-49.6-112-112s49.6-112,112-112S908,349.6,908,412z M652,412
		c0,80,64,144,144,144s144-64,144-144s-64-144-144-144S652,332,652,412z"/>
	<path class="st0" d="M76,492h96v328c-1.6,4.8-1.6,9.6,0,14.4V876H76V492z M220,556c67.2,0,144,38.4,179.2,89.6
		c3.2,4.8,8,6.4,12.8,6.4h128c49.6,0,100.8,46.4,110.4,96H380c-9.6,0-16,6.4-16,16s6.4,16,16,16h288c9.6,0,16-6.4,16-16
		c0-16-3.2-32-9.6-48H860c70.4,0,97.6,24,107.2,40L524,935.2c-32,12.8-68.8,11.2-99.2-4.8L204,818.4V556H220z M60,908h128
		c9.6,0,16-6.4,16-16v-36.8l206.4,104c20.8,11.2,44.8,16,68.8,16c19.2,0,38.4-3.2,57.6-11.2l457.6-185.6c6.4-3.2,11.2-9.6,9.6-17.6
		c0-3.2-16-76.8-144-76.8H655.2c-27.2-36.8-72-64-115.2-64H420c-41.6-56-124.8-96-200-96h-16v-48c0-9.6-6.4-16-16-16H60
		c-9.6,0-16,6.4-16,16v416C44,901.6,50.4,908,60,908z"/>
	<path class="st0" d="M524,220c0,62.4-49.6,112-112,112s-112-49.6-112-112s49.6-112,112-112S524,157.6,524,220z M268,220
		c0,80,64,144,144,144s144-64,144-144S492,76,412,76S268,140,268,220z"/>
	<path class="st0" d="M364,220c0,9.6,6.4,16,16,16h64c9.6,0,16-6.4,16-16s-6.4-16-16-16h-64C370.4,204,364,210.4,364,220z"/>
	<path class="st0" d="M748,412c0,9.6,6.4,16,16,16h64c9.6,0,16-6.4,16-16s-6.4-16-16-16h-64C754.4,396,748,402.4,748,412z"/>
</g>
</svg>
